<svg width="1024" height="1024" viewBox="0 0 1024 1024" fill="none" xmlns="http://www.w3.org/2000/svg">
<g clip-path="url(#clip0_394_188)">
<rect x="-1" width="1025" height="1024" fill="#0B1E25"/>
<path fill-rule="evenodd" clip-rule="evenodd" d="M798.5 275.484C737.542 214.675 653.394 177 560.368 177C374.322 177 223.5 327.433 223.5 513.001C223.5 698.567 374.322 849 560.368 849C653.394 849 737.542 811.325 798.5 750.518L694.532 646.816C660.18 681.081 612.789 702.337 560.368 702.337C455.53 702.337 370.543 617.569 370.543 513.001C370.543 408.434 455.53 323.666 560.368 323.666C612.789 323.666 660.18 344.921 694.529 379.187L798.5 275.484Z" fill="#FFF500"/>
</g>
<defs>
<clipPath id="clip0_394_188">
<rect width="1024" height="1024" fill="white"/>
</clipPath>
</defs>
</svg>
